<svg width="1643" height="597" viewBox="0 0 1643 597" fill="none" xmlns="http://www.w3.org/2000/svg">
<g opacity="0.6">
<path d="M1612.96 512.921L1612.96 501L1643 501L1643 532.699L1631.79 532.699L1631.79 512.921L1612.96 512.921Z" fill="white"/>
<path d="M1592.69 534.326L1592.69 522.495L1622.72 522.495L1622.72 554.104L1611.43 554.104L1611.43 534.326L1592.69 534.326Z" fill="white"/>
<path d="M1572.4 555.818L1572.4 543.897L1602.35 543.897L1602.35 575.596L1591.14 575.596L1591.14 555.818L1572.4 555.818Z" fill="white"/>
<path d="M1552.04 577.222L1552.04 565.301L1582.07 565.301L1582.07 597L1570.78 597L1570.78 577.222L1552.04 577.222Z" fill="white"/>
</g>
<g clip-path="url(#clip0_2724_543)">
<path d="M996.868 30.8602C996.868 32.0247 996.04 32.8981 994.935 32.8981C993.83 32.8981 993.002 32.0247 993.002 30.8602C993.002 29.6956 993.83 28.8223 994.935 28.8223C996.04 28.8223 996.868 29.7927 996.868 30.8602Z" fill="white"/>
<path d="M1013.34 30.8602C1013.34 32.0247 1012.52 32.8981 1011.41 32.8981C1010.31 32.8981 1009.48 32.0247 1009.48 30.8602C1009.48 29.6956 1010.31 28.8223 1011.41 28.8223C1012.42 28.8223 1013.34 29.7927 1013.34 30.8602Z" fill="white"/>
<path d="M1029.73 30.8602C1029.73 32.0247 1028.9 32.8981 1027.8 32.8981C1026.69 32.8981 1025.86 32.0247 1025.86 30.8602C1025.86 29.6956 1026.69 28.8223 1027.8 28.8223C1028.9 28.8223 1029.73 29.7927 1029.73 30.8602Z" fill="white"/>
<path d="M1046.21 30.8602C1046.21 32.0247 1045.38 32.8981 1044.27 32.8981C1043.17 32.8981 1042.34 32.0247 1042.34 30.8602C1042.34 29.6956 1043.17 28.8223 1044.27 28.8223C1045.38 28.8223 1046.21 29.7927 1046.21 30.8602Z" fill="white"/>
<path d="M1062.68 30.8602C1062.68 32.0247 1061.85 32.8981 1060.75 32.8981C1059.64 32.8981 1058.82 32.0247 1058.82 30.8602C1058.82 29.6956 1059.64 28.8223 1060.75 28.8223C1061.76 28.8223 1062.68 29.7927 1062.68 30.8602Z" fill="white"/>
<path d="M1079.16 30.8602C1079.16 32.0247 1078.33 32.8981 1077.23 32.8981C1076.12 32.8981 1075.29 32.0247 1075.29 30.8602C1075.29 29.6956 1076.12 28.8223 1077.23 28.8223C1078.33 28.8223 1079.16 29.7927 1079.16 30.8602Z" fill="white"/>
<path d="M1095.54 30.8602C1095.54 32.0247 1094.72 32.8981 1093.61 32.8981C1092.51 32.8981 1091.68 32.0247 1091.68 30.8602C1091.68 29.6956 1092.51 28.8223 1093.61 28.8223C1094.72 28.8223 1095.54 29.7927 1095.54 30.8602Z" fill="white"/>
<path d="M1112.02 30.8602C1112.02 32.0247 1111.19 32.8981 1110.09 32.8981C1108.98 32.8981 1108.15 32.0247 1108.15 30.8602C1108.15 29.6956 1108.98 28.8223 1110.09 28.8223C1111.19 28.8223 1112.02 29.7927 1112.02 30.8602Z" fill="white"/>
<path d="M1128.5 30.8602C1128.5 32.0247 1127.67 32.8981 1126.56 32.8981C1125.46 32.8981 1124.63 32.0247 1124.63 30.8602C1124.63 29.6956 1125.46 28.8223 1126.56 28.8223C1127.58 28.8223 1128.5 29.7927 1128.5 30.8602Z" fill="white"/>
<path d="M996.868 45.3191C996.868 46.4837 996.04 47.357 994.935 47.357C993.83 47.357 993.002 46.4837 993.002 45.3191C993.002 44.1546 993.83 43.2812 994.935 43.2812C996.04 43.2812 996.868 44.1546 996.868 45.3191Z" fill="white"/>
<path d="M1013.34 45.3191C1013.34 46.4837 1012.52 47.357 1011.41 47.357C1010.31 47.357 1009.48 46.4837 1009.48 45.3191C1009.48 44.1546 1010.31 43.2812 1011.41 43.2812C1012.42 43.2812 1013.34 44.1546 1013.34 45.3191Z" fill="white"/>
<path d="M1029.73 45.3191C1029.73 46.4837 1028.9 47.357 1027.8 47.357C1026.69 47.357 1025.86 46.4837 1025.86 45.3191C1025.86 44.1546 1026.69 43.2812 1027.8 43.2812C1028.9 43.2812 1029.73 44.1546 1029.73 45.3191Z" fill="white"/>
<path d="M1046.21 45.3191C1046.21 46.4837 1045.38 47.357 1044.27 47.357C1043.17 47.357 1042.34 46.4837 1042.34 45.3191C1042.34 44.1546 1043.17 43.2812 1044.27 43.2812C1045.38 43.2812 1046.21 44.1546 1046.21 45.3191Z" fill="white"/>
<path d="M1062.68 45.3191C1062.68 46.4837 1061.85 47.357 1060.75 47.357C1059.64 47.357 1058.82 46.4837 1058.82 45.3191C1058.82 44.1546 1059.64 43.2812 1060.75 43.2812C1061.76 43.2812 1062.68 44.1546 1062.68 45.3191Z" fill="white"/>
<path d="M1079.16 45.3191C1079.16 46.4837 1078.33 47.357 1077.23 47.357C1076.12 47.357 1075.29 46.4837 1075.29 45.3191C1075.29 44.1546 1076.12 43.2812 1077.23 43.2812C1078.33 43.2812 1079.16 44.1546 1079.16 45.3191Z" fill="white"/>
<path d="M1095.54 45.3191C1095.54 46.4837 1094.72 47.357 1093.61 47.357C1092.51 47.357 1091.68 46.4837 1091.68 45.3191C1091.68 44.1546 1092.51 43.2812 1093.61 43.2812C1094.72 43.2812 1095.54 44.1546 1095.54 45.3191Z" fill="white"/>
<path d="M1112.02 45.3191C1112.02 46.4837 1111.19 47.357 1110.09 47.357C1108.98 47.357 1108.15 46.4837 1108.15 45.3191C1108.15 44.1546 1108.98 43.2812 1110.09 43.2812C1111.19 43.2812 1112.02 44.1546 1112.02 45.3191Z" fill="white"/>
<path d="M1128.5 45.3191C1128.5 46.4837 1127.67 47.357 1126.56 47.357C1125.46 47.357 1124.63 46.4837 1124.63 45.3191C1124.63 44.1546 1125.46 43.2812 1126.56 43.2812C1127.58 43.2812 1128.5 44.1546 1128.5 45.3191Z" fill="white"/>
<path d="M996.868 2.03789C996.868 3.2024 996.04 4.07579 994.935 4.07579C993.83 4.07579 993.002 3.2024 993.002 2.03789C993.002 0.873382 993.83 0 994.935 0C996.04 0 996.868 0.873382 996.868 2.03789Z" fill="white"/>
<path d="M1013.34 2.03789C1013.34 3.2024 1012.52 4.07579 1011.41 4.07579C1010.31 4.07579 1009.48 3.2024 1009.48 2.03789C1009.48 0.873382 1010.31 0 1011.41 0C1012.42 0 1013.34 0.873382 1013.34 2.03789Z" fill="white"/>
<path d="M1029.73 2.03789C1029.73 3.2024 1028.9 4.07579 1027.8 4.07579C1026.69 4.07579 1025.86 3.2024 1025.86 2.03789C1025.86 0.873382 1026.78 0 1027.8 0C1028.9 0 1029.73 0.873382 1029.73 2.03789Z" fill="white"/>
<path d="M1046.21 2.03789C1046.21 3.2024 1045.38 4.07579 1044.27 4.07579C1043.17 4.07579 1042.34 3.2024 1042.34 2.03789C1042.34 0.873382 1043.26 0 1044.27 0C1045.29 0 1046.21 0.873382 1046.21 2.03789Z" fill="white"/>
<path d="M1062.68 2.03789C1062.68 3.2024 1061.85 4.07579 1060.75 4.07579C1059.64 4.07579 1058.82 3.2024 1058.82 2.03789C1058.82 0.873382 1059.64 0 1060.75 0C1061.76 0 1062.68 0.873382 1062.68 2.03789Z" fill="white"/>
<path d="M1079.16 2.03789C1079.16 3.2024 1078.33 4.07579 1077.23 4.07579C1076.12 4.07579 1075.29 3.2024 1075.29 2.03789C1075.29 0.873382 1076.12 0 1077.23 0C1078.33 0 1079.16 0.873382 1079.16 2.03789Z" fill="white"/>
<path d="M1095.54 2.03789C1095.54 3.2024 1094.72 4.07579 1093.61 4.07579C1092.51 4.07579 1091.68 3.2024 1091.68 2.03789C1091.68 0.873382 1092.51 0 1093.61 0C1094.72 0 1095.54 0.873382 1095.54 2.03789Z" fill="white"/>
<path d="M1112.02 2.03789C1112.02 3.2024 1111.19 4.07579 1110.09 4.07579C1108.98 4.07579 1108.15 3.2024 1108.15 2.03789C1108.15 0.873382 1108.98 0 1110.09 0C1111.19 0 1112.02 0.873382 1112.02 2.03789Z" fill="white"/>
<path d="M1128.5 2.03789C1128.5 3.2024 1127.67 4.07579 1126.56 4.07579C1125.46 4.07579 1124.63 3.2024 1124.63 2.03789C1124.63 0.873382 1125.46 0 1126.56 0C1127.58 0 1128.5 0.873382 1128.5 2.03789Z" fill="white"/>
<path d="M996.868 16.4969C996.868 17.6614 996.04 18.5348 994.935 18.5348C993.83 18.5348 993.002 17.5643 993.002 16.4969C993.002 15.3324 993.83 14.459 994.935 14.459C996.04 14.459 996.868 15.3324 996.868 16.4969Z" fill="white"/>
<path d="M1013.34 16.4969C1013.34 17.6614 1012.52 18.5348 1011.41 18.5348C1010.31 18.5348 1009.48 17.6614 1009.48 16.4969C1009.48 15.3324 1010.31 14.459 1011.41 14.459C1012.42 14.459 1013.34 15.3324 1013.34 16.4969Z" fill="white"/>
<path d="M1029.73 16.4969C1029.73 17.6614 1028.9 18.5348 1027.8 18.5348C1026.69 18.5348 1025.86 17.6614 1025.86 16.4969C1025.86 15.3324 1026.69 14.459 1027.8 14.459C1028.9 14.459 1029.73 15.3324 1029.73 16.4969Z" fill="white"/>
<path d="M1046.21 16.4969C1046.21 17.6614 1045.38 18.5348 1044.27 18.5348C1043.17 18.5348 1042.34 17.6614 1042.34 16.4969C1042.34 15.3324 1043.17 14.459 1044.27 14.459C1045.38 14.459 1046.21 15.3324 1046.21 16.4969Z" fill="white"/>
<path d="M1062.68 16.4969C1062.68 17.6614 1061.85 18.5348 1060.75 18.5348C1059.64 18.5348 1058.82 17.6614 1058.82 16.4969C1058.82 15.3324 1059.64 14.459 1060.75 14.459C1061.76 14.459 1062.68 15.3324 1062.68 16.4969Z" fill="white"/>
<path d="M1079.16 16.4969C1079.16 17.6614 1078.33 18.5348 1077.23 18.5348C1076.12 18.5348 1075.29 17.6614 1075.29 16.4969C1075.29 15.3324 1076.12 14.459 1077.23 14.459C1078.33 14.459 1079.16 15.3324 1079.16 16.4969Z" fill="white"/>
<path d="M1095.54 16.4969C1095.54 17.6614 1094.72 18.5348 1093.61 18.5348C1092.51 18.5348 1091.68 17.6614 1091.68 16.4969C1091.68 15.3324 1092.51 14.459 1093.61 14.459C1094.72 14.459 1095.54 15.3324 1095.54 16.4969Z" fill="white"/>
<path d="M1112.02 16.4969C1112.02 17.6614 1111.19 18.5348 1110.09 18.5348C1108.98 18.5348 1108.15 17.6614 1108.15 16.4969C1108.15 15.3324 1108.98 14.459 1110.09 14.459C1111.19 14.459 1112.02 15.3324 1112.02 16.4969Z" fill="white"/>
<path d="M1128.5 16.4969C1128.5 17.6614 1127.67 18.5348 1126.56 18.5348C1125.46 18.5348 1124.63 17.6614 1124.63 16.4969C1124.63 15.3324 1125.46 14.459 1126.56 14.459C1127.58 14.459 1128.5 15.3324 1128.5 16.4969Z" fill="white"/>
<path d="M996.868 59.6805C996.868 60.845 996.04 61.7184 994.935 61.7184C993.83 61.7184 993.002 60.845 993.002 59.6805C993.002 58.516 993.83 57.6426 994.935 57.6426C996.04 57.6426 996.868 58.613 996.868 59.6805Z" fill="white"/>
<path d="M1013.34 59.6805C1013.34 60.845 1012.52 61.7184 1011.41 61.7184C1010.31 61.7184 1009.48 60.845 1009.48 59.6805C1009.48 58.516 1010.31 57.6426 1011.41 57.6426C1012.42 57.6426 1013.34 58.613 1013.34 59.6805Z" fill="white"/>
<path d="M1029.73 59.6805C1029.73 60.845 1028.9 61.7184 1027.8 61.7184C1026.69 61.7184 1025.86 60.845 1025.86 59.6805C1025.86 58.516 1026.69 57.6426 1027.8 57.6426C1028.9 57.6426 1029.73 58.613 1029.73 59.6805Z" fill="white"/>
<path d="M1046.21 59.6805C1046.21 60.845 1045.38 61.7184 1044.27 61.7184C1043.17 61.7184 1042.34 60.845 1042.34 59.6805C1042.34 58.516 1043.17 57.6426 1044.27 57.6426C1045.38 57.6426 1046.21 58.613 1046.21 59.6805Z" fill="white"/>
<path d="M1062.68 59.6805C1062.68 60.845 1061.85 61.7184 1060.75 61.7184C1059.64 61.7184 1058.82 60.845 1058.82 59.6805C1058.82 58.516 1059.64 57.6426 1060.75 57.6426C1061.76 57.6426 1062.68 58.613 1062.68 59.6805Z" fill="white"/>
<path d="M1079.16 59.6805C1079.16 60.845 1078.33 61.7184 1077.23 61.7184C1076.12 61.7184 1075.29 60.845 1075.29 59.6805C1075.29 58.516 1076.12 57.6426 1077.23 57.6426C1078.33 57.6426 1079.16 58.613 1079.16 59.6805Z" fill="white"/>
<path d="M1095.54 59.6805C1095.54 60.845 1094.72 61.7184 1093.61 61.7184C1092.51 61.7184 1091.68 60.845 1091.68 59.6805C1091.68 58.516 1092.51 57.6426 1093.61 57.6426C1094.72 57.6426 1095.54 58.613 1095.54 59.6805Z" fill="white"/>
<path d="M1112.02 59.6805C1112.02 60.845 1111.19 61.7184 1110.09 61.7184C1108.98 61.7184 1108.15 60.845 1108.15 59.6805C1108.15 58.516 1108.98 57.6426 1110.09 57.6426C1111.19 57.6426 1112.02 58.613 1112.02 59.6805Z" fill="white"/>
<path d="M1128.5 59.6805C1128.5 60.845 1127.67 61.7184 1126.56 61.7184C1125.46 61.7184 1124.63 60.845 1124.63 59.6805C1124.63 58.516 1125.46 57.6426 1126.56 57.6426C1127.58 57.6426 1128.5 58.613 1128.5 59.6805Z" fill="white"/>
<path d="M996.868 74.1395C996.868 75.304 996.04 76.1773 994.935 76.1773C993.83 76.1773 993.002 75.304 993.002 74.1395C993.002 72.9749 993.83 72.1016 994.935 72.1016C996.04 72.1016 996.868 72.9749 996.868 74.1395Z" fill="white"/>
<path d="M1013.34 74.1395C1013.34 75.304 1012.52 76.1773 1011.41 76.1773C1010.31 76.1773 1009.48 75.304 1009.48 74.1395C1009.48 72.9749 1010.31 72.1016 1011.41 72.1016C1012.42 72.1016 1013.34 72.9749 1013.34 74.1395Z" fill="white"/>
<path d="M1029.73 74.1395C1029.73 75.304 1028.9 76.1773 1027.8 76.1773C1026.69 76.1773 1025.86 75.304 1025.86 74.1395C1025.86 72.9749 1026.69 72.1016 1027.8 72.1016C1028.9 72.1016 1029.73 72.9749 1029.73 74.1395Z" fill="white"/>
<path d="M1044.27 76.1773C1045.34 76.1773 1046.21 75.265 1046.21 74.1395C1046.21 73.014 1045.34 72.1016 1044.27 72.1016C1043.21 72.1016 1042.34 73.014 1042.34 74.1395C1042.34 75.265 1043.21 76.1773 1044.27 76.1773Z" fill="white"/>
<path d="M1062.68 74.1395C1062.68 75.304 1061.85 76.1773 1060.75 76.1773C1059.64 76.1773 1058.82 75.304 1058.82 74.1395C1058.82 72.9749 1059.64 72.1016 1060.75 72.1016C1061.76 72.1016 1062.68 72.9749 1062.68 74.1395Z" fill="white"/>
<path d="M1079.16 74.1395C1079.16 75.304 1078.33 76.1773 1077.23 76.1773C1076.12 76.1773 1075.29 75.304 1075.29 74.1395C1075.29 72.9749 1076.12 72.1016 1077.23 72.1016C1078.33 72.1016 1079.16 72.9749 1079.16 74.1395Z" fill="white"/>
<path d="M1095.54 74.1395C1095.54 75.304 1094.72 76.1773 1093.61 76.1773C1092.51 76.1773 1091.68 75.304 1091.68 74.1395C1091.68 72.9749 1092.51 72.1016 1093.61 72.1016C1094.72 72.1016 1095.54 72.9749 1095.54 74.1395Z" fill="white"/>
<path d="M1110.09 76.1773C1111.15 76.1773 1112.02 75.265 1112.02 74.1395C1112.02 73.014 1111.15 72.1016 1110.09 72.1016C1109.02 72.1016 1108.15 73.014 1108.15 74.1395C1108.15 75.265 1109.02 76.1773 1110.09 76.1773Z" fill="white"/>
<path d="M1128.5 74.1395C1128.5 75.304 1127.67 76.1773 1126.56 76.1773C1125.46 76.1773 1124.63 75.304 1124.63 74.1395C1124.63 72.9749 1125.46 72.1016 1126.56 72.1016C1127.58 72.1016 1128.5 72.9749 1128.5 74.1395Z" fill="white"/>
<path d="M996.868 88.6004C996.868 89.7649 996.04 90.6383 994.935 90.6383C993.83 90.6383 993.002 89.7649 993.002 88.6004C993.002 87.4359 993.83 86.5625 994.935 86.5625C996.04 86.5625 996.868 87.4359 996.868 88.6004Z" fill="white"/>
<path d="M1013.34 88.6004C1013.34 89.7649 1012.52 90.6383 1011.41 90.6383C1010.31 90.6383 1009.48 89.7649 1009.48 88.6004C1009.48 87.4359 1010.31 86.5625 1011.41 86.5625C1012.42 86.5625 1013.34 87.4359 1013.34 88.6004Z" fill="white"/>
<path d="M1029.73 88.6004C1029.73 89.7649 1028.9 90.6383 1027.8 90.6383C1026.69 90.6383 1025.86 89.7649 1025.86 88.6004C1025.86 87.4359 1026.69 86.5625 1027.8 86.5625C1028.9 86.5625 1029.73 87.4359 1029.73 88.6004Z" fill="white"/>
<path d="M1046.21 88.6004C1046.21 89.7649 1045.38 90.6383 1044.27 90.6383C1043.17 90.6383 1042.34 89.7649 1042.34 88.6004C1042.34 87.4359 1043.17 86.5625 1044.27 86.5625C1045.38 86.5625 1046.21 87.4359 1046.21 88.6004Z" fill="white"/>
<path d="M1062.68 88.6004C1062.68 89.7649 1061.85 90.6383 1060.75 90.6383C1059.64 90.6383 1058.82 89.7649 1058.82 88.6004C1058.82 87.4359 1059.64 86.5625 1060.75 86.5625C1061.76 86.5625 1062.68 87.4359 1062.68 88.6004Z" fill="white"/>
<path d="M1079.16 88.6004C1079.16 89.7649 1078.33 90.6383 1077.23 90.6383C1076.12 90.6383 1075.29 89.7649 1075.29 88.6004C1075.29 87.4359 1076.12 86.5625 1077.23 86.5625C1078.33 86.5625 1079.16 87.4359 1079.16 88.6004Z" fill="white"/>
<path d="M1095.54 88.6004C1095.54 89.7649 1094.72 90.6383 1093.61 90.6383C1092.51 90.6383 1091.68 89.7649 1091.68 88.6004C1091.68 87.4359 1092.51 86.5625 1093.61 86.5625C1094.72 86.5625 1095.54 87.4359 1095.54 88.6004Z" fill="white"/>
<path d="M1112.02 88.6004C1112.02 89.7649 1111.19 90.6383 1110.09 90.6383C1108.98 90.6383 1108.15 89.7649 1108.15 88.6004C1108.15 87.4359 1108.98 86.5625 1110.09 86.5625C1111.19 86.5625 1112.02 87.4359 1112.02 88.6004Z" fill="white"/>
<path d="M1128.5 88.6004C1128.5 89.7649 1127.67 90.6383 1126.56 90.6383C1125.46 90.6383 1124.63 89.7649 1124.63 88.6004C1124.63 87.4359 1125.46 86.5625 1126.56 86.5625C1127.58 86.5625 1128.5 87.4359 1128.5 88.6004Z" fill="white"/>
<path d="M996.868 102.962C996.868 104.126 996.04 105 994.935 105C993.83 105 993.002 104.126 993.002 102.962C993.002 101.797 993.83 100.924 994.935 100.924C996.04 100.924 996.868 101.894 996.868 102.962Z" fill="white"/>
<path d="M1013.34 102.962C1013.34 104.126 1012.52 105 1011.41 105C1010.31 105 1009.48 104.126 1009.48 102.962C1009.48 101.797 1010.31 100.924 1011.41 100.924C1012.42 100.924 1013.34 101.894 1013.34 102.962Z" fill="white"/>
<path d="M1029.73 102.962C1029.73 104.126 1028.9 105 1027.8 105C1026.69 105 1025.86 104.126 1025.86 102.962C1025.86 101.797 1026.69 100.924 1027.8 100.924C1028.9 100.924 1029.73 101.894 1029.73 102.962Z" fill="white"/>
<path d="M1046.21 102.962C1046.21 104.126 1045.38 105 1044.27 105C1043.17 105 1042.34 104.126 1042.34 102.962C1042.34 101.797 1043.17 100.924 1044.27 100.924C1045.38 100.924 1046.21 101.894 1046.21 102.962Z" fill="white"/>
<path d="M1062.68 102.962C1062.68 104.126 1061.85 105 1060.75 105C1059.64 105 1058.82 104.126 1058.82 102.962C1058.82 101.797 1059.64 100.924 1060.75 100.924C1061.76 100.924 1062.68 101.894 1062.68 102.962Z" fill="white"/>
<path d="M1079.16 102.962C1079.16 104.126 1078.33 105 1077.23 105C1076.12 105 1075.29 104.126 1075.29 102.962C1075.29 101.797 1076.12 100.924 1077.23 100.924C1078.33 100.924 1079.16 101.894 1079.16 102.962Z" fill="white"/>
<path d="M1095.54 102.962C1095.54 104.126 1094.72 105 1093.61 105C1092.51 105 1091.68 104.126 1091.68 102.962C1091.68 101.797 1092.51 100.924 1093.61 100.924C1094.72 100.924 1095.54 101.894 1095.54 102.962Z" fill="white"/>
<path d="M1112.02 102.962C1112.02 104.126 1111.19 105 1110.09 105C1108.98 105 1108.15 104.126 1108.15 102.962C1108.15 101.797 1108.98 100.924 1110.09 100.924C1111.19 100.924 1112.02 101.894 1112.02 102.962Z" fill="white"/>
<path d="M1128.5 102.962C1128.5 104.126 1127.67 105 1126.56 105C1125.46 105 1124.63 104.126 1124.63 102.962C1124.63 101.797 1125.46 100.924 1126.56 100.924C1127.58 100.924 1128.5 101.894 1128.5 102.962Z" fill="white"/>
</g>
<path opacity="0.6" d="M38.8484 81.9782C29.9773 91.3406 15.5244 91.3406 6.65331 81.9782C-2.21777 72.6158 -2.21777 57.3624 6.65331 48L38.8484 81.9782Z" fill="white"/>
<defs>
<clipPath id="clip0_2724_543">
<rect width="135.495" height="105" fill="white" transform="translate(993.002)"/>
</clipPath>
</defs>
</svg>
